<?xml version="1.0" encoding="UTF-8"?><svg width="140px" height="33px" viewBox="0 0 140 33" version="1.1" xmlns="http://www.w3.org/2000/svg" xmlns:xlink="http://www.w3.org/1999/xlink"><defs><polygon id="a" points="23.7887576 0.293557594 0.0220909091 0.293557594 0.0220909091 32.7521723 23.7887576 32.7521723 23.7887576 0.293557594"/></defs><g stroke="none" stroke-width="1" fill="none" fill-rule="evenodd"><g transform="translate(-42.000000, -13.000000)"><g transform="translate(42.000000, 13.000000)"><path d="M63.612697 28.0460316c-2.809394-3.1202625-4.2139394-6.8928415-4.2139394-11.3162207S60.803303 8.51747655 63.612697 5.363552C66.4557273 2.24359275 69.8657273.68300662 73.8402727.68300662c3.0139394 0 5.67.89189347 7.9660606 2.67386085 2.2948485 1.7492151 3.6833334 3.97879715 4.1627273 6.68662332h-2.0548485c-.3784848-2.12556318-1.5260606-3.8911544-3.4436363-5.29707694-1.8857576-1.40592252-4.0957576-2.10918705-6.6303031-2.10918705-3.4263636 0-6.3393939 1.3719572-8.7366666 4.11465852-2.4336364 2.77787972-3.649697 6.10436038-3.649697 9.97792558 0 3.8750816 1.2160606 7.2015622 3.649697 9.9791386 2.3972727 2.7430046 5.310303 4.1134455 8.7366666 4.1134455 2.9115152 0 5.3966667-1.1132747 7.4518182-3.3422502 2.0563636-2.194707 3.0842424-4.8685678 3.0842424-8.0237055v-.7724082H73.8402727v-1.9542202h12.1287879v15.2249643h-1.5927273v-6.2757033c-.7545454 2.1270795-2.1066666 3.8241335-4.0609091 5.0920718-1.9190909 1.30342-4.0766666 1.9545235-6.4751515 1.9545235-3.9745454 0-7.3845454-1.5593731-10.2275757-4.6796356M109.124939 27.0115747c2.113334-2.4949363 3.169697-5.8399159 3.169697-10.0352421 0-4.2975255-1.056363-7.74743377-3.169697-10.34699544-2.11303-2.59956168-4.935454-3.89964577-8.468484-3.89964577-3.5330308 0-6.3569702 1.30008408-8.4696974 3.89964576-2.1130303 2.59956167-3.1684849 6.04946994-3.1684849 10.34699544 0 4.1953262 1.0554546 7.5403058 3.1684849 10.0352421 2.1127272 2.531631 4.9366666 3.7962334 8.4696974 3.7962334 3.53303 0 6.355454-1.2646024 8.468484-3.7962334m-18.444242 1.4047094c-2.4942425-2.8773496-3.7412122-6.6899592-3.7412122-11.4399515 0-4.9213354 1.2469697-8.85646282 3.7412122-11.80234967C93.1749394 2.22688303 96.4997879.7539396 100.656455.7539396c4.156666 0 7.481515 1.47294343 9.975757 4.42004333 2.494243 2.94588685 3.74 6.88101427 3.74 11.80234967 0 4.7499923-1.245757 8.5626019-3.74 11.4399515-2.494242 2.877653-5.819091 4.3151147-9.975757 4.3151147-4.1566671 0-7.4815156-1.4374617-9.975758-4.3151147" fill="#808080"/><polygon fill="#808080" points="115.459576 32.5798588 115.459576 0.429843527 118.439273 0.429843527 137.833818 29.9232839 137.833818 0.429843527 139.999879 0.429843527 139.999879 32.5798588 137.021697 32.5798588 117.627152 3.52008308 117.627152 32.5798588"/><path d="M35.4766061 22.6198863h3.4469697c0 1.7246509.760606 3.14513 2.2812121 4.2611341 1.4193939 1.0147146 3.1087879 1.5217686 5.0684848 1.5217686 2.0948485 0 3.8857576-.6592915 5.3730303-1.9781779 1.5539394-1.3522451 2.3318182-3.0095719 2.3318182-4.9713736 0-2.0621814-.76-3.805028-2.280606-5.2245973-1.5212122-1.4207824-3.329394-2.131022-5.4242425-2.131022-1.3521212 0-2.6357575.2535271-3.8518182.7605811-1.2166666.5419291-2.2478787 1.3191896-3.0924242 2.3339042h-3.4975758l3.0921213-15.9791769h16.1693939v3.44930174H42.016l-1.5206061 7.91392456c.6075758-.7432951 1.469394-1.2685448 2.5848485-1.5724133.8439394-.2365444 1.9084849-.3554231 3.1930303-.3554231 3.0412121 0 5.659697 1.0480734 7.8572728 3.1448267 2.1957575 2.0979664 3.2945454 4.6505224 3.2945454 7.6600943 0 2.9088889-1.1151515 5.3774414-3.3451515 7.4059608-2.1633333 1.9960703-4.7654546 2.9928924-7.8066667 2.9928924-2.9060606 0-5.4066666-.8451911-7.5012121-2.5364832-2.1975758-1.7913685-3.2954545-4.0239831-3.2954545-6.6957212" fill="#5B95A5"/><g transform="translate(34.545455, 0.009704)"><mask id="b" fill="white"><use xlink:href="#a"/></mask><g/><path d="M1.88875758 23.5199679c.21848484 1.9972834 1.1769697 3.6664373 2.91181818 5.0805479 1.91545454 1.5466361 4.24727272 2.3320846 6.92727274 2.3320846 2.8315151 0 5.1836363-.9000815 7.190303-2.7517992 2.0554546-1.8699133 3.0524243-4.0722018 3.0524243-6.7372681 0-2.7745438-.9857576-5.0650815-3.0133334-7.002319-2.040303-1.9460321-4.4051515-2.892816-7.2293939-2.892816-1.1948485 0-2.18666668.1082645-2.9478788.3217609-.94272728.2568629-1.6360606.6723318-2.12666667 1.272184l-2.27454545 2.7827319L6.71936364 3.74273802H19.6384545V2.11300815H5.12784848L2.38815152 16.2726131h1.9821212c.87636364-.9601274 1.92909092-1.7176758 3.1360606-2.2553593 1.3418182-.5598216 2.75545458-.8391259 4.22151518-.8391259 2.3230303 0 4.3566667.7993986 6.0445454 2.3754511 1.7048485 1.5918221 2.569394 3.5736391 2.569394 5.8899541 0 2.2274593-.89 4.1310347-2.6445455 5.6579587-1.6451515 1.4589934-3.6557576 2.2013787-5.9693939 2.2013787-2.1439394 0-4.02727274-.5692227-5.5969697-1.691292-1.4969697-1.0984149-2.36636365-2.4703721-2.59848486-4.0916106H1.88875758zm9.83909092 9.2322044c-3.10606062 0-5.8218182-.9213099-8.07212123-2.7381524C1.24360607 28.0476692.0220909 25.5575851.0220909 22.610182v-.909786h5.2648485v.909786c0 1.4304867.62484848 2.5840953 1.91 3.5275433 1.26363636.9031141 2.74878787 1.3455734 4.5309091 1.3455734 1.8821212 0 3.4424242-.5719521 4.77-1.7492151 1.3651515-1.1878772 2.0257576-2.589554 2.0257576-4.2905505 0-1.8168425-.6515152-3.3082849-1.9918182-4.5595438-1.3590909-1.2691514-2.9306061-1.8862895-4.8039394-1.8862895-1.2248485 0-2.40303032.2326019-3.50212123.6908308-1.06454545.4739985-1.99424242 1.1757467-2.74363636 2.0758282l-.27272726.3278262H.18421212L3.62815152.2934363H21.4566364v5.2688736H8.22118182l-.9439394 4.912844c.31848485-.1407135.65818182-.260502 1.0190909-.3587589.91424244-.25655963 2.07090908-.3875688 3.43151518-.3875688 3.2678788 0 6.1224242 1.1426911 8.4842424 3.3962309 2.3733333 2.2671865 3.5766667 5.0659913 3.5766667 8.318476 0 3.1621127-1.2257576 5.880553-3.6427273 8.0792024-2.3209091 2.1413328-5.1545455 3.2294368-8.4181818 3.2294368z" fill="#5B95A5" mask="url(#b)"/></g><polygon fill="#666666" points="16.2294242 14.7392296 3.03030301e-05 2.92899516 3.03030301e-05 8.30704307 12.9882121 17.7639646 3.03030301e-05 27.1608402 3.03030301e-05 32.598934 16.2294242 20.844803"/><polygon fill="#5B95A5" points="33.4602727 2.92890418 17.2260303 14.7433843 17.2260303 20.8404664 33.4602727 32.598843 33.4602727 27.1607492 20.5275455 17.7638736 33.4602727 8.30695209"/><polygon fill="#5B95A5" points="16.2294242 12.1641715 3.03030301e-05 0.353937054 3.03030301e-05 5.7316817 12.9882121 15.1889065 3.03030301e-05 24.5857821 3.03030301e-05 30.0235726 16.2294242 18.2697449"/><polygon fill="#808080" points="33.4602727 0.353846075 17.2260303 12.1680229 17.2260303 18.2654083 33.4602727 30.0234817 33.4602727 24.5856911 20.5275455 15.1888155 33.4602727 5.73159072"/></g></g></g></svg>